<?xml version="1.0" encoding="UTF-8"?>
<svg id="all" xmlns="http://www.w3.org/2000/svg" viewBox="0 0 3708.65 1818.31">
  <defs>
    <style>
      .cls-1 {
        fill: #542f13;
      }

      .cls-2 {
        fill: #5c6562;
      }

      .cls-3 {
        fill: #2b1b11;
      }

      .cls-4 {
        fill: #0e0e0f;
      }

      .cls-5 {
        fill: #552cc4;
      }

      .cls-6 {
        fill: #7c7c7c;
      }

      .cls-7 {
        fill: #56423c;
      }

      .cls-8 {
        fill: #1f1f23;
      }

      .cls-9 {
        fill: #472910;
      }

      .cls-10 {
        fill: #565449;
      }

      .cls-11 {
        fill: #513831;
      }

      .cls-12 {
        fill: #3a210a;
      }

      .cls-13 {
        fill: #3d2922;
      }

      .cls-14 {
        fill: #9891f9;
      }

      .cls-15 {
        fill: #79685c;
      }

      .cls-16 {
        fill: #af8510;
      }

      .cls-17 {
        fill: #3d00bf;
      }

      .cls-18 {
        fill: #6553e5;
      }

      .cls-19 {
        fill: #45322d;
      }

      .cls-20 {
        fill: #6b605f;
      }

      .cls-21 {
        fill: #26190a;
      }

      .cls-22 {
        fill: none;
        stroke: #1c1105;
        stroke-miterlimit: 10;
        stroke-width: 40px;
      }

      .cls-23 {
        fill: #7f3812;
      }

      .cls-24 {
        fill: #1c1105;
      }

      .cls-25 {
        fill: #261d18;
      }

      .cls-26 {
        fill: #565656;
      }

      .cls-27 {
        fill: #30137f;
        opacity: .31;
      }

      .cls-28 {
        fill: #1c1004;
      }

      .cls-29 {
        fill: #49585f;
      }

      .cls-30 {
        fill: #848984;
      }
    </style>
  </defs>
  <g id="chair">
    <rect class="cls-28" x="862.94" y="993.69" width="57.91" height="862.72"/>
    <rect class="cls-24" x="642.96" y="993.69" width="72.55" height="862.72"/>
    <rect class="cls-24" x="1056.94" y="993.69" width="72.55" height="862.72"/>
    <ellipse class="cls-22" cx="887.56" cy="1477.6" rx="241.93" ry="38.52"/>
    <path class="cls-24" d="M563.16,916.76v69.45s9.17,40.59,310.01,40.59,332.09-33.71,332.09-33.71v-76.33h-642.11Z"/>
    <ellipse class="cls-21" cx="884.21" cy="916.76" rx="321.05" ry="50.48"/>
  </g>
  <path class="cls-25" d="M672.2,330.4s-22.05-52.15,4.78-63.17c23.58-9.69,423.53-7.97,430.44,7.96,6.91,15.93,10.73,49.38,0,66.28-10.73,16.91-336.03,90.78-366.33,55.5-30.3-35.28-68.89-66.57-68.89-66.57Z"/>
  <path class="cls-13" d="M641.44,600.09c0,15.93-16.76,150.94-24.75,230.92-.6,6.03,7.56,9.85,7.11,15.19-.62,7.35-11.98,5.55-12.25,11.27-.26,5.37,5.29,7.01,5.14,12.74-.17,6.69-9.29,27.1-8.57,28.42,8.82,16.17,188.18,79.75,324.22,60.64,83.53-11.73,217.62-23,242.47-58.51,20.01-28.59,13.39-16.46,0-29.69-7.51-7.42,3.51-12.33,4.57-23.15,1.65-16.86-14.34-29.79-13.33-45.31,2.16-33.21,1.34-33.72.31-41.76l-29.01-144.37c19.11,13.36,72.61,11.21,79.23-13.07,48.43-177.6-90.05-235.49-90.05-235.49,0,0-249.72,76.45-463.21,0,0,0-192.18,102.91-105.44,255.8,24.57,43.31,83.55-23.64,83.55-23.64Z"/>
  <g>
    <path class="cls-2" d="M661.95,238.83s-2.25,26.49,30.75,56.7c33.01,30.22,148.43,45.49,198.41,45.96,42.26.39,153.84-12.95,190.4-40.12,41.61-30.92,35.15-55.33,35.15-55.33,0,0,71.74,2.97,147.99,4.66,168.91,3.73,204.28-31.67,274.56-126.42l-421.63-19.27S1039.91,1.43,887.69,0c-123.23-1.15-224.45,101.25-224.45,101.25l-422.37,11.01c86.51,83.8,79.73,160.31,421.09,126.56Z"/>
    <path class="cls-20" d="M828.39,197.81s-7.31-47.44-55.39-46.75c-48.08.7-60.21,39.39-57.46,60.93,2.75,21.54,134.76.23,112.85-14.18Z"/>
    <path class="cls-20" d="M959.19,199.03s8.2-47.3,56.25-45.71c48.05,1.59,59.46,40.51,56.31,61.99-3.15,21.49-134.75-2.28-112.56-16.29Z"/>
    <g>
      <path d="M828.34,202.95s-25.86-51.58-74.52-36.59c-28.78,8.86-31.77,30.21-30.91,43.45.86,13.24,20.83,17.04,34.39,17.23,54.39.75,71.04-24.08,71.04-24.08Z"/>
      <path class="cls-8" d="M812,194.41s-19.31-38.52-55.65-27.33c-21.5,6.62-23.73,22.56-23.09,32.45.64,9.89,15.56,12.73,25.68,12.87,40.62.56,53.06-17.99,53.06-17.99Z"/>
      <path class="cls-6" d="M802.82,186.14s-6.64-13.24-19.12-9.39c-7.39,2.27-8.15,7.75-7.93,11.15.22,3.4,5.35,4.37,8.83,4.42,13.96.19,18.23-6.18,18.23-6.18Z"/>
      <path class="cls-26" d="M759.83,207.12s-4.68-9.33-13.48-6.62c-5.21,1.6-5.75,5.46-5.59,7.86.15,2.39,3.77,3.08,6.22,3.12,9.84.14,12.85-4.36,12.85-4.36Z"/>
      <path class="cls-4" d="M797.2,194.26s-12.08-24.1-34.82-17.1c-13.45,4.14-14.84,14.12-14.44,20.3.4,6.19,9.73,7.96,16.07,8.05,25.41.35,33.19-11.25,33.19-11.25Z"/>
    </g>
    <g>
      <path d="M957.67,204.16s26.82-51.08,75.19-35.2c28.61,9.4,31.2,30.8,30.1,44.02-1.1,13.22-21.14,16.65-34.7,16.58-54.39-.26-70.58-25.41-70.58-25.41Z"/>
      <path class="cls-8" d="M974.16,195.92s20.03-38.15,56.16-26.29c21.37,7.02,23.3,23,22.48,32.88-.82,9.87-15.79,12.44-25.92,12.39-40.63-.2-52.71-18.98-52.71-18.98Z"/>
      <path class="cls-6" d="M983.5,187.83s6.88-13.11,19.3-9.03c7.34,2.41,8.01,7.9,7.72,11.3s-5.43,4.27-8.91,4.26c-13.96-.07-18.11-6.52-18.11-6.52Z"/>
      <path class="cls-26" d="M1026.09,209.61s4.85-9.24,13.6-6.36c5.17,1.7,5.64,5.57,5.44,7.96-.2,2.39-3.82,3.01-6.28,3-9.84-.05-12.76-4.59-12.76-4.59Z"/>
      <path class="cls-4" d="M988.97,196.05s12.53-23.87,35.13-16.44c13.37,4.39,14.58,14.39,14.06,20.57s-9.88,7.78-16.22,7.75c-25.42-.12-32.98-11.87-32.98-11.87Z"/>
    </g>
    <path class="cls-30" d="M875.97,236.97s16.5,4.56,17.93,8.25c1.44,3.69,9.54,1.56,10.29.1.75-1.46,5.95-7.66,12.2-7.97,6.25-.31-3.94-11.43-9.83-10.38-5.89,1.05-29.38-2.11-30.6,10.01Z"/>
    <path d="M901.53,280.63c-3.9,3.74-4.18,2.6-4.18,2.6,0,0-5.03-9.57-27.91-10.02,0,0,13.53-2.69,18.17.2,4.63,2.89,9.18,3.97,9.18,3.97,0,0,7.3-3.26,16.24-7.09,9.38-4.01,11.23-1.79,11.24-2.74,0,0-12.62,3.37-22.73,13.08Z"/>
    <path class="cls-20" d="M778.81,285.68c-.26,28.21,25.5,47.39-2.39,43.14-79.98-12.18-114.06-53.7-113.8-81.91.26-28.21,37.37-13.06,65.58-12.79,28.21.26,50.87,23.35,50.61,51.56Z"/>
    <path class="cls-20" d="M999.32,287.74c-.26,28.21-26.38,46.91,1.59,43.18,80.2-10.68,115.05-51.56,115.31-79.77.26-28.21-37.12-13.75-65.33-14.02-28.21-.26-51.3,22.39-51.56,50.61Z"/>
    <path class="cls-10" d="M813.14,151.43s-35.89-33.83-55.8-31.71c-19.91,2.12,29.16-7.19,35.4.64,6.24,7.83,20.4,31.07,20.4,31.07Z"/>
    <path class="cls-10" d="M956.34,154.69s34.19-35.55,54.17-34.41c19.99,1.14-29.48-5.74-35.32,2.38-5.85,8.13-18.85,32.03-18.85,32.03Z"/>
    <path class="cls-23" d="M661.95,238.83s.44-82.44-59.05-87.44c-59.5-5-336.05-27.17-328.75-21.95,7.3,5.21,43.83,68.46,70.21,78.29,26.37,9.83,112.88,34.53,175.41,29.78,62.53-4.75,135.27-10.31,142.19,1.33Z"/>
    <path class="cls-23" d="M1116.29,243.07s1.1-82.44,60.67-86.32c59.58-3.89,342.03-24.77,334.63-19.7-7.4,5.08-50.64,71.52-77.19,80.85-26.55,9.33-113.51,32.41-175.93,26.5-62.43-5.91-135.05-12.84-142.19-1.33Z"/>
  </g>
  <path class="cls-19" d="M897.78,457.79l10.74,215.68-5.37,286.73s-38.58,6.01-51.59-3.42c-6.06-4.39,1.28-190.72,2.57-286.25,1.48-109.62-7.94-225.05-7.94-225.05l51.59,12.31Z"/>
  <path class="cls-7" d="M870.39,442.8l8.92,216.95-3.55,300.39s-16.87,6.23-22.56-3.54c-2.7-4.63-.78-199.43-.18-300.31.66-112.11-5.19-226.23-5.19-226.23l22.56,12.76Z"/>
  <path class="cls-19" d="M836.48,380.75s160-12.46,216.72-41.12c56.72-28.67,63.76-39.69,63.76-39.69,0,0,13.64,49.85,6.2,69.46-24.26,63.95-227.13,91.51-270.13,88.21s-16.54-76.85-16.54-76.85Z"/>
  <path class="cls-7" d="M663.33,286.71s-5.47,23.44,18.79,31.56c18.6,6.23,123.05,21.31,170.73,27.99,12.04,1.69,20.05,13.17,17.69,25.09-3.44,17.38-5.12,41.87,6.05,60.89,19.43,33.08-58.64,49.62-73.63,39.69s-176.06-49.62-139.63-185.23Z"/>
  <g id="TABLE">
    <rect class="cls-12" x="-37.05" y="844.06" width="3774.9" height="1004.09"/>
    <polygon class="cls-9" points="-23.01 926.41 1205.27 916.76 -23.01 967.24 -23.01 926.41"/>
    <polygon class="cls-9" points="828.34 1012.66 3369.99 1018.16 2213.61 1039.66 828.34 1012.66"/>
    <polygon class="cls-9" points="3737.85 1124.48 2370.92 1113.47 3737.85 1152 3737.85 1124.48"/>
    <polygon class="cls-9" points="356.79 1215.28 1880.25 1201.52 1063.15 1229.04 356.79 1215.28"/>
    <polygon class="cls-9" points="2474.79 881.64 3635.36 881.13 2699.94 908.17 2474.79 881.64"/>
    <polygon class="cls-9" points="1589.02 875.17 2297.56 881.13 2049.91 896.71 1589.02 875.17"/>
    <polygon class="cls-1" points="2029.76 1242.8 2637.86 1242.8 2111.82 1266.65 2029.76 1242.8"/>
    <polygon class="cls-1" points="-23.01 1369.37 963.88 1330.98 508.13 1369.37 -23.01 1369.37"/>
    <polygon class="cls-9" points="0 1086.31 570.79 1071.92 -2.92 1113.47 0 1086.31"/>
    <polygon class="cls-1" points="3723.82 1275.54 2599.34 1319.56 3430.32 1317.09 3723.82 1275.54"/>
    <polygon class="cls-1" points="1093.22 1383.13 2111.82 1350.17 1589.02 1383.13 1093.22 1383.13"/>
    <polygon class="cls-1" points="35.2 1553.73 1943.29 1553.73 693.08 1586.75 35.2 1553.73"/>
    <polygon class="cls-1" points="2831.35 1586.75 3716.48 1534.47 3244.16 1586.75 2831.35 1586.75"/>
  </g>
  <ellipse class="cls-3" cx="891.9" cy="930.93" rx="251.61" ry="105.98"/>
  <g>
    <circle class="cls-17" cx="879.68" cy="639.94" r="268.23"/>
    <circle class="cls-5" cx="911.29" cy="603.42" r="218.21"/>
    <circle class="cls-18" cx="932.34" cy="541.19" r="115.38"/>
    <circle class="cls-14" cx="968.76" cy="476.44" r="36.42"/>
    <ellipse class="cls-27" cx="884.58" cy="842.21" rx="152.78" ry="58.56"/>
    <path class="cls-16" d="M757.98,889.62l-1.93-11.59s55.03,21.51,139.56,21.51c72.77,0,132.12-35.92,132.12-35.92v17.15c0,7.34-4.95,13.01-11.41,16.5-35.93,19.42-151.66,50.74-247.06,7-5.95-2.73-10.21-8.19-11.28-14.65Z"/>
  </g>
  <g>
    <path class="cls-15" d="M614.26,473.18s21.08-1.24,35.53,14.61c14.45,15.85-10.02,276.5-38.56,274.31-51.87-3.97-46.59-166.66-24.4-249.8,8.43-31.61,27.43-39.13,27.43-39.13Z"/>
    <path class="cls-11" d="M625.04,479.4s17.4-1.71,28.86,12.29c11.46,14-15.91,251.35-39.36,250.15-42.62-2.17-33.76-150.05-13.19-226.15,7.82-28.93,23.68-36.29,23.68-36.29Z"/>
    <path class="cls-29" d="M635.26,477.82s11.08-.21,23.93-8.18c12.85-7.98,39.8-17.58,40.65-10.46.86,7.13-16.34,36.5-26.6,35.63-10.26-.87-9.81,9.96-5.18,11.71,4.63,1.75,29.29,24.81,42.98,42.74,13.98,18.32-7.59,27.33-26.64,11.79-19.05-15.54-18.64-19.05-24.48-13.1-18.93,19.29,29.34,58.66,23.94,64.93-5.4,6.27-24.76-4.94-48.32-26.56-16.76-15.37-17.92-15.34-26.45-22.74-15.87-13.78-13.31-34.17-10.69-54.87.99-7.87,18.64-22.71,36.87-30.91Z"/>
    <path class="cls-15" d="M1153.91,469.51s-21.12-.15-34.73,16.42c-13.61,16.58,16.32,272.14,44.94,272.16,57.53.03,45.63-169.04,19.2-250.92-10.05-31.13-29.41-37.66-29.41-37.66Z"/>
    <path class="cls-11" d="M1148.86,478.27s-18.56-.42-30.3,14.51c-11.74,14.93,17.97,248.3,43.13,248.69,50.57.8,37.85-153.48,13.53-228.48-9.25-28.51-26.35-34.73-26.35-34.73Z"/>
    <path class="cls-29" d="M1133.18,475.22s-11.07.36-24.32-6.94c-13.25-7.31-40.65-15.51-41.14-8.35-.49,7.16,18.2,35.61,28.4,34.22,10.2-1.39,10.31,9.44,5.78,11.43-4.53,1.99-27.97,26.28-40.72,44.9-13.02,19.02,8.99,26.91,27.22,10.41,18.23-16.5,17.64-19.99,23.78-14.34,19.9,18.29-26.28,60.1-20.56,66.08s24.47-6.21,46.89-29.01c15.94-16.21,17.11-16.24,25.24-24.07,15.14-14.57,11.53-34.81,7.86-55.35-1.4-7.81-19.78-21.72-38.41-28.97Z"/>
  </g>
</svg>